sfk_cyclingleg_x_-0.09_y_-0.04_states
version=1
nRows=4
nColumns=53
inDegrees=yes

# SIMM Motion File Header:
name sfk_cyclingleg_x_-0.09_y_-0.04_states
datacolumns 53
datarows 4
otherdata 1
range 0.39054210 0.39095646
endheader
time	/jointset/bb/crank_angle/value	/jointset/bb/crank_angle/speed	/jointset/spindle/pedal_angle_r/value	/jointset/spindle/pedal_angle_r/speed	/jointset/ground_pelvis/pelvis_tilt/value	/jointset/ground_pelvis/pelvis_tilt/speed	/jointset/ground_pelvis/pelvis_list/value	/jointset/ground_pelvis/pelvis_list/speed	/jointset/ground_pelvis/pelvis_rotation/value	/jointset/ground_pelvis/pelvis_rotation/speed	/jointset/ground_pelvis/pelvis_tx/value	/jointset/ground_pelvis/pelvis_tx/speed	/jointset/ground_pelvis/pelvis_ty/value	/jointset/ground_pelvis/pelvis_ty/speed	/jointset/ground_pelvis/pelvis_tz/value	/jointset/ground_pelvis/pelvis_tz/speed	/jointset/hip_r/hip_angle_r/value	/jointset/hip_r/hip_angle_r/speed	/jointset/hip_r/hip_adduction_r/value	/jointset/hip_r/hip_adduction_r/speed	/jointset/hip_r/hip_rotation_r/value	/jointset/hip_r/hip_rotation_r/speed	/jointset/knee_r/knee_angle_r/value	/jointset/knee_r/knee_angle_r/speed	/jointset/knee_r/tib_tx_r/value	/jointset/knee_r/tib_tx_r/speed	/jointset/knee_r/tib_ty_r/value	/jointset/knee_r/tib_ty_r/speed	/jointset/tib_pat_r/pat_angle_r/value	/jointset/tib_pat_r/pat_angle_r/speed	/jointset/tib_pat_r/pat_tx_r/value	/jointset/tib_pat_r/pat_tx_r/speed	/jointset/tib_pat_r/pat_ty_r/value	/jointset/tib_pat_r/pat_ty_r/speed	/jointset/ankle_r/ankle_angle_r/value	/jointset/ankle_r/ankle_angle_r/speed	/jointset/subtalar_r/subtalar_angle_r/value	/jointset/subtalar_r/subtalar_angle_r/speed	/jointset/mtp_r/mtp_angle_r/value	/jointset/mtp_r/mtp_angle_r/speed	/forceset/bifemlh_r/activation	/forceset/bifemlh_r/fiber_length	/forceset/bifemsh_r/activation	/forceset/bifemsh_r/fiber_length	/forceset/glut_max2_r/activation	/forceset/glut_max2_r/fiber_length	/forceset/vas_int_r/activation	/forceset/vas_int_r/fiber_length	/forceset/med_gas_r/activation	/forceset/med_gas_r/fiber_length	/forceset/tib_ant_r/activation	/forceset/tib_ant_r/fiber_length
      0.39054210	   -197.64923004	   -480.13863232	    200.09198129	    247.46692423	      0.00000000	     -0.00000000	      0.00000000	      0.00000000	      0.00000000	      0.00000000	     -0.09000000	     -0.00000000	     -0.04000000	      0.00000000	     -0.00000000	     -0.00000000	     36.72800485	     73.23231982	      4.38255231	      0.28370187	      1.06488124	    -23.62937742	    -56.19484596	   -278.99315241	      0.00451112	      0.02528091	     -0.47481912	     -0.08237068	     17.30402415	      7.98483222	      0.04392722	     -0.08053929	     -0.02306455	      0.01037933	     22.32347113	    -26.52265320	     -0.00000000	     -0.00000000	      0.00000000	      0.00000000	     -0.15359018	      0.11569016	     -0.15359018	      0.16853889	     -0.15359018	      0.12768277	     -0.15359018	      0.12633609	     -0.15359018	      0.14728591	     -0.15359018	      0.11625132
      0.39087935	   -197.81115382	   -480.13863232	    200.17546063	    247.60158689	      0.00000000	     -0.00000000	      0.00000000	      0.00000000	      0.00000000	      0.00000000	     -0.09000000	     -0.00000000	     -0.04000000	      0.00000000	     -0.00000000	     -0.00000000	     36.75273875	     73.45008327	      4.38264708	      0.27832481	      1.05691298	    -23.62575269	    -56.28897802	   -279.24980724	      0.00451963	      0.02515492	     -0.47484693	     -0.08252320	     17.30670791	      7.93103058	      0.04390004	     -0.08066738	     -0.02306105	      0.01038396	     22.31455635	    -26.34575769	     -0.00000000	     -0.00000000	      0.00000000	      0.00000000	     -0.15363360	      0.11566087	     -0.15363360	      0.16848510	     -0.15363360	      0.12770135	     -0.15363360	      0.12640658	     -0.15363360	      0.14718424	     -0.15363360	      0.11625930
      0.39091307	   -197.82734620	   -480.13863232	    200.18381107	    247.61515105	      0.00000000	     -0.00000000	      0.00000000	      0.00000000	      0.00000000	      0.00000000	     -0.09000000	     -0.00000000	     -0.04000000	      0.00000000	     -0.00000000	     -0.00000000	     36.75521617	     73.47180819	      4.38265646	      0.27778611	      1.05611623	    -23.62538423	    -56.29839598	   -279.27533129	      0.00452048	      0.02514225	     -0.47484971	     -0.08253841	     17.30697529	      7.92565051	      0.04389732	     -0.08068015	     -0.02306070	      0.01038442	     22.31366816	    -26.32806036	     -0.00000000	     -0.00000000	      0.00000000	      0.00000000	     -0.15363794	      0.11565794	     -0.15363794	      0.16847972	     -0.15363794	      0.12770321	     -0.15363794	      0.12641362	     -0.15363794	      0.14723330	     -0.15363794	      0.11626010
      0.39095646	   -197.84818041	   -480.13863232	    200.19455599	    247.63262970	      0.00000000	     -0.00000000	      0.00000000	      0.00000000	      0.00000000	      0.00000000	     -0.09000000	     -0.00000000	     -0.04000000	      0.00000000	     -0.00000000	     -0.00000000	     36.75840487	     73.49974727	      4.38266850	      0.27709271	      1.05509108	    -23.62490856	    -56.31051503	   -279.30813457	      0.00452157	      0.02512593	     -0.47485329	     -0.08255797	     17.30731905	      7.91872820	      0.04389382	     -0.08069658	     -0.02306025	      0.01038501	     22.31252622	    -26.30528772	     -0.00000000	     -0.00000000	      0.00000000	      0.00000000	     -0.15364353	      0.11565418	     -0.15364353	      0.16847280	     -0.15364353	      0.12770561	     -0.15364353	      0.12642269	     -0.15364353	      0.14723312	     -0.15364353	      0.11626112
